# xmcd
#
# Track frame offsets: 
#        150
#        12253
#        22233
#        33892
#        47925
#        61273
#        70051
#        82341
#        94606
#        105665
#        118043
#        131846
#        145218
#        156080
#        166642
#        177411
#        190664
#        203691
#        213571
#        226606
#        241720
#        251455
#        260016
#        271630
#        284209
#        294833
#        307082
#        318094
#
# Disc length: 4351 seconds
#
# Revision: 1
# Processed by: cddbd v1.5.2PL0 Copyright (c) Steve Scherf et al.
# Submitted via: ExactAudioCopy v1.0b1
#
DISCID=8d10fd1c
DTITLE=The Coasters - There's A Riot Goin' On: The Coasters On Atco (D
DTITLE=isc 4)
DYEAR=2007
DGENRE=R&B
TTITLE0=Yakety Yak (alt - take 5) (stereo)
TTITLE1=Three Cool Cats (alt - take 1) (stereo)
TTITLE2=(When She Wants Good Lovin') My Baby Comes To Me (alt) (mono)
TTITLE3=Ridin' Hood (alt - take 28) (stereo)
TTITLE4=The Shadow Knows (alt - take 2) (stereo)
TTITLE5=I'm A Hog For You (alt - slow version) (stereo)
TTITLE6=Charlie Brown (alt) (stereo)
TTITLE7=Poison Ivy (alt) (stereo)
TTITLE8=That Is Rock and Roll (Lp version) (stereo)
TTITLE9=The Slime (stereo)
TTITLE10=Run Red Run (Lp version) (stereo)
TTITLE11=Hey Sexy (alt) (stereo)
TTITLE12=The Snake And The Book Worm (Lp version) (stereo)
TTITLE13=Bad Blood (Lp version) (stereo)
TTITLE14=Keep On Rolling (Lp version) (stereo)
TTITLE15=Along Came Jones (Lp version) (stereo)
TTITLE16=Little Egypt (Ying-Yang) (Lp version) (stereo)
TTITLE17=Girls Girls Girls (Lp version) (stereo)
TTITLE18=What About Us (Lp version) (stereo)
TTITLE19=I'm A Hog For You (alt - 'Yeah Yeah' version) (stereo)
TTITLE20=Crocodile (alt - take 1) (mono)
TTITLE21=Yakety Yak (alt - take 3) (mono)
TTITLE22=Wake Me, Shake Me (stereo Lp mix)
TTITLE23=Poison Ivy (alt) (stereo)
TTITLE24=I'm A Hog For You (undubbed stereo master)
TTITLE25=Three Cool Cats (extended stereo master)
TTITLE26=Dance! (extended version) (mono)
TTITLE27=Yakety Yak (alt) (stereo)
EXTD=
EXTT0=
EXTT1=
EXTT2=
EXTT3=
EXTT4=
EXTT5=
EXTT6=
EXTT7=
EXTT8=
EXTT9=
EXTT10=
EXTT11=
EXTT12=
EXTT13=
EXTT14=
EXTT15=
EXTT16=
EXTT17=
EXTT18=
EXTT19=
EXTT20=
EXTT21=
EXTT22=
EXTT23=
EXTT24=
EXTT25=
EXTT26=
EXTT27=
PLAYORDER=
